<mxfile host="app.diagrams.net" modified="2023-11-24T04:57:53.399Z" agent="Mozilla/5.0 (Windows NT 10.0; Win64; x64) AppleWebKit/537.36 (KHTML, like Gecko) Chrome/119.0.0.0 Safari/537.36 Edg/119.0.0.0" etag="UrhaRFoURTLyHX5SACn8" version="22.1.3" type="device">
  <diagram name="Page-1" id="AAep0pwrTmbCYHi55Vq3">
    <mxGraphModel dx="2437" dy="1427" grid="1" gridSize="10" guides="1" tooltips="1" connect="1" arrows="1" fold="1" page="1" pageScale="1" pageWidth="1400" pageHeight="850" math="0" shadow="0">
      <root>
        <mxCell id="0" />
        <mxCell id="1" parent="0" />
        <mxCell id="65gUk-IXfFiE8Me1EHnl-8" value="" style="edgeStyle=orthogonalEdgeStyle;rounded=0;orthogonalLoop=1;jettySize=auto;html=1;" edge="1" parent="1" source="wCoCReetOrhJjx5d1i82-1" target="65gUk-IXfFiE8Me1EHnl-7">
          <mxGeometry relative="1" as="geometry" />
        </mxCell>
        <mxCell id="wCoCReetOrhJjx5d1i82-1" value="start" style="ellipse;whiteSpace=wrap;html=1;" parent="1" vertex="1">
          <mxGeometry x="20" y="50" width="70" height="50" as="geometry" />
        </mxCell>
        <mxCell id="wCoCReetOrhJjx5d1i82-2" value="Customer" style="text;strokeColor=none;align=center;fillColor=none;html=1;verticalAlign=middle;whiteSpace=wrap;rounded=0;" parent="1" vertex="1">
          <mxGeometry x="40" y="-50" width="60" height="50" as="geometry" />
        </mxCell>
        <mxCell id="wCoCReetOrhJjx5d1i82-6" value="" style="endArrow=none;dashed=1;html=1;rounded=0;" parent="1" edge="1">
          <mxGeometry width="50" height="50" relative="1" as="geometry">
            <mxPoint x="200" y="1720" as="sourcePoint" />
            <mxPoint x="200" y="-10" as="targetPoint" />
          </mxGeometry>
        </mxCell>
        <mxCell id="wCoCReetOrhJjx5d1i82-7" value="System" style="text;strokeColor=none;align=center;fillColor=none;html=1;verticalAlign=middle;whiteSpace=wrap;rounded=0;" parent="1" vertex="1">
          <mxGeometry x="410" y="-40" width="60" height="30" as="geometry" />
        </mxCell>
        <mxCell id="wCoCReetOrhJjx5d1i82-17" value="Display reservation calander" style="whiteSpace=wrap;html=1;" parent="1" vertex="1">
          <mxGeometry x="270" y="220" width="120" height="60" as="geometry" />
        </mxCell>
        <mxCell id="wCoCReetOrhJjx5d1i82-33" value="" style="edgeStyle=orthogonalEdgeStyle;rounded=0;orthogonalLoop=1;jettySize=auto;html=1;exitX=0;exitY=0.5;exitDx=0;exitDy=0;" parent="1" source="wCoCReetOrhJjx5d1i82-17" target="65gUk-IXfFiE8Me1EHnl-12" edge="1">
          <mxGeometry relative="1" as="geometry">
            <mxPoint x="110" y="250" as="targetPoint" />
            <Array as="points">
              <mxPoint x="120" y="250" />
            </Array>
          </mxGeometry>
        </mxCell>
        <mxCell id="wCoCReetOrhJjx5d1i82-38" value="" style="edgeStyle=orthogonalEdgeStyle;rounded=0;orthogonalLoop=1;jettySize=auto;html=1;entryX=0;entryY=0.5;entryDx=0;entryDy=0;" parent="1" source="wCoCReetOrhJjx5d1i82-32" target="wCoCReetOrhJjx5d1i82-37" edge="1">
          <mxGeometry relative="1" as="geometry">
            <mxPoint x="280" y="480" as="targetPoint" />
            <Array as="points">
              <mxPoint x="208" y="510" />
              <mxPoint x="208" y="380" />
              <mxPoint x="710" y="380" />
              <mxPoint x="710" y="370" />
            </Array>
          </mxGeometry>
        </mxCell>
        <mxCell id="wCoCReetOrhJjx5d1i82-32" value="" style="whiteSpace=wrap;html=1;" parent="1" vertex="1">
          <mxGeometry x="15" y="480" width="120" height="60" as="geometry" />
        </mxCell>
        <mxCell id="wCoCReetOrhJjx5d1i82-34" value="Booking request" style="text;strokeColor=none;align=center;fillColor=none;html=1;verticalAlign=middle;whiteSpace=wrap;rounded=0;" parent="1" vertex="1">
          <mxGeometry x="40" y="500" width="60" height="30" as="geometry" />
        </mxCell>
        <mxCell id="wCoCReetOrhJjx5d1i82-35" value="" style="endArrow=none;dashed=1;html=1;rounded=0;" parent="1" edge="1">
          <mxGeometry width="50" height="50" relative="1" as="geometry">
            <mxPoint x="678" y="1740" as="sourcePoint" />
            <mxPoint x="678" y="1" as="targetPoint" />
          </mxGeometry>
        </mxCell>
        <mxCell id="wCoCReetOrhJjx5d1i82-36" value="DVC" style="text;strokeColor=none;align=center;fillColor=none;html=1;verticalAlign=middle;whiteSpace=wrap;rounded=0;" parent="1" vertex="1">
          <mxGeometry x="750" y="-40" width="60" height="30" as="geometry" />
        </mxCell>
        <mxCell id="65gUk-IXfFiE8Me1EHnl-21" value="" style="edgeStyle=orthogonalEdgeStyle;rounded=0;orthogonalLoop=1;jettySize=auto;html=1;" edge="1" parent="1" source="wCoCReetOrhJjx5d1i82-37" target="65gUk-IXfFiE8Me1EHnl-20">
          <mxGeometry relative="1" as="geometry" />
        </mxCell>
        <mxCell id="wCoCReetOrhJjx5d1i82-37" value="" style="whiteSpace=wrap;html=1;" parent="1" vertex="1">
          <mxGeometry x="710" y="340" width="120" height="60" as="geometry" />
        </mxCell>
        <mxCell id="wCoCReetOrhJjx5d1i82-39" value="Check request" style="text;strokeColor=none;align=center;fillColor=none;html=1;verticalAlign=middle;whiteSpace=wrap;rounded=0;" parent="1" vertex="1">
          <mxGeometry x="740" y="355" width="60" height="30" as="geometry" />
        </mxCell>
        <mxCell id="wCoCReetOrhJjx5d1i82-44" value="" style="endArrow=none;dashed=1;html=1;rounded=0;" parent="1" edge="1">
          <mxGeometry width="50" height="50" relative="1" as="geometry">
            <mxPoint x="1000" y="1440" as="sourcePoint" />
            <mxPoint x="1000" as="targetPoint" />
          </mxGeometry>
        </mxCell>
        <mxCell id="wCoCReetOrhJjx5d1i82-45" value="Admin" style="text;strokeColor=none;align=center;fillColor=none;html=1;verticalAlign=middle;whiteSpace=wrap;rounded=0;" parent="1" vertex="1">
          <mxGeometry x="1200" y="-40" width="60" height="30" as="geometry" />
        </mxCell>
        <mxCell id="wCoCReetOrhJjx5d1i82-70" value="&lt;br&gt;&lt;span style=&quot;color: rgb(0, 0, 0); font-family: Helvetica; font-size: 12px; font-style: normal; font-variant-ligatures: normal; font-variant-caps: normal; font-weight: 400; letter-spacing: normal; orphans: 2; text-align: center; text-indent: 0px; text-transform: none; widows: 2; word-spacing: 0px; -webkit-text-stroke-width: 0px; background-color: rgb(251, 251, 251); text-decoration-thickness: initial; text-decoration-style: initial; text-decoration-color: initial; float: none; display: inline !important;&quot;&gt;check approval status&lt;/span&gt;&lt;br&gt;" style="whiteSpace=wrap;html=1;" parent="1" vertex="1">
          <mxGeometry x="20" y="700" width="120" height="60" as="geometry" />
        </mxCell>
        <mxCell id="wCoCReetOrhJjx5d1i82-84" value="" style="edgeStyle=orthogonalEdgeStyle;rounded=0;orthogonalLoop=1;jettySize=auto;html=1;exitX=0.5;exitY=0;exitDx=0;exitDy=0;" parent="1" source="wCoCReetOrhJjx5d1i82-70" target="wCoCReetOrhJjx5d1i82-83" edge="1">
          <mxGeometry relative="1" as="geometry">
            <mxPoint x="75" y="770" as="sourcePoint" />
          </mxGeometry>
        </mxCell>
        <mxCell id="wCoCReetOrhJjx5d1i82-91" style="edgeStyle=orthogonalEdgeStyle;rounded=0;orthogonalLoop=1;jettySize=auto;html=1;exitX=1;exitY=0.5;exitDx=0;exitDy=0;entryX=0.75;entryY=1;entryDx=0;entryDy=0;" parent="1" source="wCoCReetOrhJjx5d1i82-83" target="wCoCReetOrhJjx5d1i82-32" edge="1">
          <mxGeometry relative="1" as="geometry">
            <mxPoint x="190" y="570" as="targetPoint" />
            <Array as="points">
              <mxPoint x="153" y="615" />
              <mxPoint x="153" y="560" />
              <mxPoint x="105" y="560" />
            </Array>
          </mxGeometry>
        </mxCell>
        <mxCell id="wCoCReetOrhJjx5d1i82-83" value="" style="rhombus;whiteSpace=wrap;html=1;" parent="1" vertex="1">
          <mxGeometry x="60" y="570" width="72.5" height="90" as="geometry" />
        </mxCell>
        <mxCell id="wCoCReetOrhJjx5d1i82-85" value="if canceled" style="text;strokeColor=none;align=center;fillColor=none;html=1;verticalAlign=middle;whiteSpace=wrap;rounded=0;" parent="1" vertex="1">
          <mxGeometry x="62.5" y="600" width="60" height="30" as="geometry" />
        </mxCell>
        <mxCell id="wCoCReetOrhJjx5d1i82-92" value="Yes" style="text;strokeColor=none;align=center;fillColor=none;html=1;verticalAlign=middle;whiteSpace=wrap;rounded=0;" parent="1" vertex="1">
          <mxGeometry x="122.5" y="630" width="60" height="30" as="geometry" />
        </mxCell>
        <mxCell id="65gUk-IXfFiE8Me1EHnl-9" style="edgeStyle=orthogonalEdgeStyle;rounded=0;orthogonalLoop=1;jettySize=auto;html=1;exitX=1;exitY=0.5;exitDx=0;exitDy=0;entryX=0.568;entryY=0.037;entryDx=0;entryDy=0;entryPerimeter=0;" edge="1" parent="1" source="65gUk-IXfFiE8Me1EHnl-7" target="wCoCReetOrhJjx5d1i82-17">
          <mxGeometry relative="1" as="geometry">
            <mxPoint x="240" y="180" as="targetPoint" />
            <Array as="points">
              <mxPoint x="338" y="180" />
            </Array>
          </mxGeometry>
        </mxCell>
        <mxCell id="65gUk-IXfFiE8Me1EHnl-73" style="edgeStyle=orthogonalEdgeStyle;rounded=0;orthogonalLoop=1;jettySize=auto;html=1;exitX=0;exitY=0.5;exitDx=0;exitDy=0;" edge="1" parent="1" source="65gUk-IXfFiE8Me1EHnl-7" target="65gUk-IXfFiE8Me1EHnl-75">
          <mxGeometry relative="1" as="geometry">
            <mxPoint x="-110" y="1192" as="targetPoint" />
          </mxGeometry>
        </mxCell>
        <mxCell id="65gUk-IXfFiE8Me1EHnl-7" value="Login" style="whiteSpace=wrap;html=1;" vertex="1" parent="1">
          <mxGeometry x="2.5" y="150" width="105" height="60" as="geometry" />
        </mxCell>
        <mxCell id="65gUk-IXfFiE8Me1EHnl-14" value="" style="edgeStyle=orthogonalEdgeStyle;rounded=0;orthogonalLoop=1;jettySize=auto;html=1;" edge="1" parent="1" source="65gUk-IXfFiE8Me1EHnl-12" target="65gUk-IXfFiE8Me1EHnl-13">
          <mxGeometry relative="1" as="geometry" />
        </mxCell>
        <mxCell id="65gUk-IXfFiE8Me1EHnl-12" value="Check available dates" style="rounded=0;whiteSpace=wrap;html=1;" vertex="1" parent="1">
          <mxGeometry x="10" y="230" width="120" height="60" as="geometry" />
        </mxCell>
        <mxCell id="65gUk-IXfFiE8Me1EHnl-17" style="edgeStyle=orthogonalEdgeStyle;rounded=0;orthogonalLoop=1;jettySize=auto;html=1;" edge="1" parent="1" source="65gUk-IXfFiE8Me1EHnl-13" target="wCoCReetOrhJjx5d1i82-17">
          <mxGeometry relative="1" as="geometry">
            <mxPoint x="140" y="270" as="targetPoint" />
          </mxGeometry>
        </mxCell>
        <mxCell id="65gUk-IXfFiE8Me1EHnl-13" value="Decide for booking" style="rhombus;whiteSpace=wrap;html=1;rounded=0;" vertex="1" parent="1">
          <mxGeometry x="30" y="330" width="80" height="80" as="geometry" />
        </mxCell>
        <mxCell id="65gUk-IXfFiE8Me1EHnl-15" style="edgeStyle=orthogonalEdgeStyle;rounded=0;orthogonalLoop=1;jettySize=auto;html=1;entryX=0.433;entryY=0.033;entryDx=0;entryDy=0;entryPerimeter=0;" edge="1" parent="1" source="65gUk-IXfFiE8Me1EHnl-13" target="wCoCReetOrhJjx5d1i82-32">
          <mxGeometry relative="1" as="geometry" />
        </mxCell>
        <mxCell id="65gUk-IXfFiE8Me1EHnl-16" value="Yes" style="text;html=1;strokeColor=none;fillColor=none;align=center;verticalAlign=middle;whiteSpace=wrap;rounded=0;" vertex="1" parent="1">
          <mxGeometry x="60" y="405" width="60" height="30" as="geometry" />
        </mxCell>
        <mxCell id="65gUk-IXfFiE8Me1EHnl-24" value="" style="edgeStyle=orthogonalEdgeStyle;rounded=0;orthogonalLoop=1;jettySize=auto;html=1;" edge="1" parent="1" source="65gUk-IXfFiE8Me1EHnl-20" target="65gUk-IXfFiE8Me1EHnl-23">
          <mxGeometry relative="1" as="geometry">
            <Array as="points">
              <mxPoint x="930" y="430" />
              <mxPoint x="930" y="430" />
            </Array>
          </mxGeometry>
        </mxCell>
        <mxCell id="65gUk-IXfFiE8Me1EHnl-20" value="Send approval details" style="whiteSpace=wrap;html=1;" vertex="1" parent="1">
          <mxGeometry x="870" y="340" width="120" height="60" as="geometry" />
        </mxCell>
        <mxCell id="65gUk-IXfFiE8Me1EHnl-22" style="edgeStyle=orthogonalEdgeStyle;rounded=0;orthogonalLoop=1;jettySize=auto;html=1;exitX=0.5;exitY=1;exitDx=0;exitDy=0;" edge="1" parent="1" source="wCoCReetOrhJjx5d1i82-39" target="wCoCReetOrhJjx5d1i82-39">
          <mxGeometry relative="1" as="geometry" />
        </mxCell>
        <mxCell id="65gUk-IXfFiE8Me1EHnl-26" value="" style="edgeStyle=orthogonalEdgeStyle;rounded=0;orthogonalLoop=1;jettySize=auto;html=1;" edge="1" parent="1" source="65gUk-IXfFiE8Me1EHnl-23" target="65gUk-IXfFiE8Me1EHnl-25">
          <mxGeometry relative="1" as="geometry" />
        </mxCell>
        <mxCell id="65gUk-IXfFiE8Me1EHnl-41" value="" style="edgeStyle=orthogonalEdgeStyle;rounded=0;orthogonalLoop=1;jettySize=auto;html=1;" edge="1" parent="1" source="65gUk-IXfFiE8Me1EHnl-23">
          <mxGeometry relative="1" as="geometry">
            <mxPoint x="430" y="575" as="targetPoint" />
            <Array as="points">
              <mxPoint x="430" y="538" />
              <mxPoint x="431" y="538" />
            </Array>
          </mxGeometry>
        </mxCell>
        <mxCell id="65gUk-IXfFiE8Me1EHnl-23" value="is approved" style="rhombus;whiteSpace=wrap;html=1;" vertex="1" parent="1">
          <mxGeometry x="390" y="420" width="80" height="80" as="geometry" />
        </mxCell>
        <mxCell id="65gUk-IXfFiE8Me1EHnl-28" style="edgeStyle=orthogonalEdgeStyle;rounded=0;orthogonalLoop=1;jettySize=auto;html=1;entryX=1;entryY=0.5;entryDx=0;entryDy=0;" edge="1" parent="1" source="65gUk-IXfFiE8Me1EHnl-25" target="wCoCReetOrhJjx5d1i82-70">
          <mxGeometry relative="1" as="geometry">
            <mxPoint x="300" y="780" as="targetPoint" />
            <Array as="points">
              <mxPoint x="250" y="730" />
            </Array>
          </mxGeometry>
        </mxCell>
        <mxCell id="65gUk-IXfFiE8Me1EHnl-25" value="Send approval details" style="whiteSpace=wrap;html=1;" vertex="1" parent="1">
          <mxGeometry x="240" y="540" width="120" height="60" as="geometry" />
        </mxCell>
        <mxCell id="65gUk-IXfFiE8Me1EHnl-27" value="no" style="text;html=1;strokeColor=none;fillColor=none;align=center;verticalAlign=middle;whiteSpace=wrap;rounded=0;" vertex="1" parent="1">
          <mxGeometry x="330" y="435" width="60" height="30" as="geometry" />
        </mxCell>
        <mxCell id="65gUk-IXfFiE8Me1EHnl-34" value="" style="edgeStyle=orthogonalEdgeStyle;rounded=0;orthogonalLoop=1;jettySize=auto;html=1;" edge="1" parent="1" source="65gUk-IXfFiE8Me1EHnl-29" target="65gUk-IXfFiE8Me1EHnl-33">
          <mxGeometry relative="1" as="geometry">
            <Array as="points">
              <mxPoint x="1190" y="690" />
            </Array>
          </mxGeometry>
        </mxCell>
        <mxCell id="65gUk-IXfFiE8Me1EHnl-29" value="Send approval to admin" style="whiteSpace=wrap;html=1;" vertex="1" parent="1">
          <mxGeometry x="550" y="660" width="120" height="60" as="geometry" />
        </mxCell>
        <mxCell id="65gUk-IXfFiE8Me1EHnl-31" value="yes" style="text;html=1;strokeColor=none;fillColor=none;align=center;verticalAlign=middle;whiteSpace=wrap;rounded=0;" vertex="1" parent="1">
          <mxGeometry x="440" y="495" width="60" height="30" as="geometry" />
        </mxCell>
        <mxCell id="65gUk-IXfFiE8Me1EHnl-36" value="" style="edgeStyle=orthogonalEdgeStyle;rounded=0;orthogonalLoop=1;jettySize=auto;html=1;" edge="1" parent="1" source="65gUk-IXfFiE8Me1EHnl-33">
          <mxGeometry relative="1" as="geometry">
            <mxPoint x="510" y="1050" as="targetPoint" />
            <Array as="points">
              <mxPoint x="1230" y="720" />
              <mxPoint x="1220" y="720" />
            </Array>
          </mxGeometry>
        </mxCell>
        <mxCell id="65gUk-IXfFiE8Me1EHnl-33" value="Assign employees to the event and send to system" style="whiteSpace=wrap;html=1;" vertex="1" parent="1">
          <mxGeometry x="1170" y="540" width="120" height="60" as="geometry" />
        </mxCell>
        <mxCell id="65gUk-IXfFiE8Me1EHnl-87" style="edgeStyle=orthogonalEdgeStyle;rounded=0;orthogonalLoop=1;jettySize=auto;html=1;entryX=0;entryY=0.5;entryDx=0;entryDy=0;" edge="1" parent="1" source="65gUk-IXfFiE8Me1EHnl-35" target="65gUk-IXfFiE8Me1EHnl-90">
          <mxGeometry relative="1" as="geometry">
            <mxPoint x="570" y="1260" as="targetPoint" />
            <Array as="points">
              <mxPoint x="350" y="1165" />
              <mxPoint x="351" y="1165" />
              <mxPoint x="351" y="1265" />
            </Array>
          </mxGeometry>
        </mxCell>
        <mxCell id="65gUk-IXfFiE8Me1EHnl-35" value="Send booking status to customer" style="whiteSpace=wrap;html=1;" vertex="1" parent="1">
          <mxGeometry x="290" y="1020" width="120" height="60" as="geometry" />
        </mxCell>
        <mxCell id="65gUk-IXfFiE8Me1EHnl-42" style="edgeStyle=orthogonalEdgeStyle;rounded=0;orthogonalLoop=1;jettySize=auto;html=1;entryX=0;entryY=0.5;entryDx=0;entryDy=0;" edge="1" parent="1" source="65gUk-IXfFiE8Me1EHnl-40" target="65gUk-IXfFiE8Me1EHnl-29">
          <mxGeometry relative="1" as="geometry" />
        </mxCell>
        <mxCell id="65gUk-IXfFiE8Me1EHnl-45" value="" style="edgeStyle=orthogonalEdgeStyle;rounded=0;orthogonalLoop=1;jettySize=auto;html=1;" edge="1" parent="1" source="65gUk-IXfFiE8Me1EHnl-40" target="65gUk-IXfFiE8Me1EHnl-44">
          <mxGeometry relative="1" as="geometry" />
        </mxCell>
        <mxCell id="65gUk-IXfFiE8Me1EHnl-40" value="custoer type" style="rhombus;whiteSpace=wrap;html=1;" vertex="1" parent="1">
          <mxGeometry x="370" y="650" width="80" height="80" as="geometry" />
        </mxCell>
        <mxCell id="65gUk-IXfFiE8Me1EHnl-43" value="University" style="text;html=1;strokeColor=none;fillColor=none;align=center;verticalAlign=middle;whiteSpace=wrap;rounded=0;" vertex="1" parent="1">
          <mxGeometry x="470" y="690" width="60" height="30" as="geometry" />
        </mxCell>
        <mxCell id="65gUk-IXfFiE8Me1EHnl-55" value="" style="edgeStyle=orthogonalEdgeStyle;rounded=0;orthogonalLoop=1;jettySize=auto;html=1;exitX=0;exitY=0.5;exitDx=0;exitDy=0;entryX=0.908;entryY=-0.013;entryDx=0;entryDy=0;entryPerimeter=0;" edge="1" parent="1" source="65gUk-IXfFiE8Me1EHnl-44" target="65gUk-IXfFiE8Me1EHnl-54">
          <mxGeometry relative="1" as="geometry">
            <mxPoint x="380" y="860" as="sourcePoint" />
            <mxPoint x="140" y="900" as="targetPoint" />
            <Array as="points">
              <mxPoint x="350" y="860" />
              <mxPoint x="181" y="860" />
              <mxPoint x="181" y="800" />
              <mxPoint x="140" y="800" />
            </Array>
          </mxGeometry>
        </mxCell>
        <mxCell id="65gUk-IXfFiE8Me1EHnl-44" value="Send payment methods" style="whiteSpace=wrap;html=1;" vertex="1" parent="1">
          <mxGeometry x="350" y="820" width="120" height="60" as="geometry" />
        </mxCell>
        <mxCell id="65gUk-IXfFiE8Me1EHnl-46" value="non university" style="text;html=1;strokeColor=none;fillColor=none;align=center;verticalAlign=middle;whiteSpace=wrap;rounded=0;" vertex="1" parent="1">
          <mxGeometry x="350" y="730" width="60" height="30" as="geometry" />
        </mxCell>
        <mxCell id="65gUk-IXfFiE8Me1EHnl-47" value="" style="endArrow=none;html=1;rounded=0;" edge="1" parent="1">
          <mxGeometry width="50" height="50" relative="1" as="geometry">
            <mxPoint x="380" y="570" as="sourcePoint" />
            <mxPoint x="580" y="570" as="targetPoint" />
          </mxGeometry>
        </mxCell>
        <mxCell id="65gUk-IXfFiE8Me1EHnl-48" value="" style="endArrow=classic;html=1;rounded=0;entryX=0.5;entryY=0;entryDx=0;entryDy=0;" edge="1" parent="1" target="65gUk-IXfFiE8Me1EHnl-40">
          <mxGeometry width="50" height="50" relative="1" as="geometry">
            <mxPoint x="470" y="570" as="sourcePoint" />
            <mxPoint x="490" y="590" as="targetPoint" />
            <Array as="points">
              <mxPoint x="470" y="650" />
            </Array>
          </mxGeometry>
        </mxCell>
        <mxCell id="65gUk-IXfFiE8Me1EHnl-51" value="" style="endArrow=classic;html=1;rounded=0;entryX=0.417;entryY=1;entryDx=0;entryDy=0;entryPerimeter=0;" edge="1" parent="1" target="65gUk-IXfFiE8Me1EHnl-25">
          <mxGeometry width="50" height="50" relative="1" as="geometry">
            <mxPoint x="400" y="570" as="sourcePoint" />
            <mxPoint x="290" y="730" as="targetPoint" />
            <Array as="points">
              <mxPoint x="400" y="640" />
              <mxPoint x="290" y="640" />
            </Array>
          </mxGeometry>
        </mxCell>
        <mxCell id="65gUk-IXfFiE8Me1EHnl-58" value="" style="edgeStyle=orthogonalEdgeStyle;rounded=0;orthogonalLoop=1;jettySize=auto;html=1;exitX=0.5;exitY=1;exitDx=0;exitDy=0;" edge="1" parent="1" source="65gUk-IXfFiE8Me1EHnl-54" target="65gUk-IXfFiE8Me1EHnl-59">
          <mxGeometry relative="1" as="geometry">
            <mxPoint x="270" y="925" as="targetPoint" />
          </mxGeometry>
        </mxCell>
        <mxCell id="65gUk-IXfFiE8Me1EHnl-54" value="Do the payment and upload bank slip" style="whiteSpace=wrap;html=1;" vertex="1" parent="1">
          <mxGeometry x="-12.5" y="800" width="122.5" height="60" as="geometry" />
        </mxCell>
        <mxCell id="65gUk-IXfFiE8Me1EHnl-61" value="" style="edgeStyle=orthogonalEdgeStyle;rounded=0;orthogonalLoop=1;jettySize=auto;html=1;" edge="1" parent="1" source="65gUk-IXfFiE8Me1EHnl-59" target="65gUk-IXfFiE8Me1EHnl-60">
          <mxGeometry relative="1" as="geometry" />
        </mxCell>
        <mxCell id="65gUk-IXfFiE8Me1EHnl-59" value="Validate bank slip" style="rounded=0;whiteSpace=wrap;html=1;" vertex="1" parent="1">
          <mxGeometry x="210" y="895" width="120" height="60" as="geometry" />
        </mxCell>
        <mxCell id="65gUk-IXfFiE8Me1EHnl-62" style="edgeStyle=orthogonalEdgeStyle;rounded=0;orthogonalLoop=1;jettySize=auto;html=1;entryX=0.25;entryY=1;entryDx=0;entryDy=0;" edge="1" parent="1" source="65gUk-IXfFiE8Me1EHnl-60" target="65gUk-IXfFiE8Me1EHnl-29">
          <mxGeometry relative="1" as="geometry" />
        </mxCell>
        <mxCell id="65gUk-IXfFiE8Me1EHnl-66" style="edgeStyle=orthogonalEdgeStyle;rounded=0;orthogonalLoop=1;jettySize=auto;html=1;entryX=0.153;entryY=0.987;entryDx=0;entryDy=0;entryPerimeter=0;" edge="1" parent="1" source="65gUk-IXfFiE8Me1EHnl-60" target="65gUk-IXfFiE8Me1EHnl-54">
          <mxGeometry relative="1" as="geometry">
            <mxPoint x="-10" y="990" as="targetPoint" />
            <Array as="points">
              <mxPoint x="570" y="1000" />
              <mxPoint x="6" y="1000" />
            </Array>
          </mxGeometry>
        </mxCell>
        <mxCell id="65gUk-IXfFiE8Me1EHnl-60" value="errors?" style="rhombus;whiteSpace=wrap;html=1;rounded=0;" vertex="1" parent="1">
          <mxGeometry x="530" y="880" width="80" height="70" as="geometry" />
        </mxCell>
        <mxCell id="65gUk-IXfFiE8Me1EHnl-63" value="no" style="text;html=1;strokeColor=none;fillColor=none;align=center;verticalAlign=middle;whiteSpace=wrap;rounded=0;" vertex="1" parent="1">
          <mxGeometry x="570" y="850" width="60" height="30" as="geometry" />
        </mxCell>
        <mxCell id="65gUk-IXfFiE8Me1EHnl-67" value="yes" style="text;html=1;strokeColor=none;fillColor=none;align=center;verticalAlign=middle;whiteSpace=wrap;rounded=0;" vertex="1" parent="1">
          <mxGeometry x="502.5" y="950" width="60" height="30" as="geometry" />
        </mxCell>
        <mxCell id="65gUk-IXfFiE8Me1EHnl-68" value="" style="endArrow=none;html=1;rounded=0;" edge="1" parent="1">
          <mxGeometry width="50" height="50" relative="1" as="geometry">
            <mxPoint x="510" y="1100" as="sourcePoint" />
            <mxPoint x="510" y="1020" as="targetPoint" />
          </mxGeometry>
        </mxCell>
        <mxCell id="65gUk-IXfFiE8Me1EHnl-69" value="" style="endArrow=classic;html=1;rounded=0;entryX=1;entryY=0.25;entryDx=0;entryDy=0;" edge="1" parent="1" target="65gUk-IXfFiE8Me1EHnl-35">
          <mxGeometry width="50" height="50" relative="1" as="geometry">
            <mxPoint x="510" y="1035" as="sourcePoint" />
            <mxPoint x="260" y="1060" as="targetPoint" />
          </mxGeometry>
        </mxCell>
        <mxCell id="65gUk-IXfFiE8Me1EHnl-70" value="" style="endArrow=classic;html=1;rounded=0;entryX=0.092;entryY=0.04;entryDx=0;entryDy=0;entryPerimeter=0;" edge="1" parent="1" target="65gUk-IXfFiE8Me1EHnl-72">
          <mxGeometry width="50" height="50" relative="1" as="geometry">
            <mxPoint x="510" y="1090" as="sourcePoint" />
            <mxPoint x="410" y="1150" as="targetPoint" />
            <Array as="points">
              <mxPoint x="410" y="1100" />
            </Array>
          </mxGeometry>
        </mxCell>
        <mxCell id="65gUk-IXfFiE8Me1EHnl-71" value="" style="endArrow=classic;html=1;rounded=0;" edge="1" parent="1" target="65gUk-IXfFiE8Me1EHnl-72">
          <mxGeometry width="50" height="50" relative="1" as="geometry">
            <mxPoint x="550" y="570" as="sourcePoint" />
            <mxPoint x="570" y="1190" as="targetPoint" />
            <Array as="points">
              <mxPoint x="550" y="600" />
              <mxPoint x="740" y="600" />
              <mxPoint x="750" y="1110" />
              <mxPoint x="570" y="1110" />
            </Array>
          </mxGeometry>
        </mxCell>
        <mxCell id="65gUk-IXfFiE8Me1EHnl-88" style="edgeStyle=orthogonalEdgeStyle;rounded=0;orthogonalLoop=1;jettySize=auto;html=1;entryX=0.5;entryY=0;entryDx=0;entryDy=0;" edge="1" parent="1" source="65gUk-IXfFiE8Me1EHnl-72" target="65gUk-IXfFiE8Me1EHnl-90">
          <mxGeometry relative="1" as="geometry">
            <mxPoint x="580" y="1240" as="targetPoint" />
          </mxGeometry>
        </mxCell>
        <mxCell id="65gUk-IXfFiE8Me1EHnl-72" value="Update System calander" style="rounded=0;whiteSpace=wrap;html=1;" vertex="1" parent="1">
          <mxGeometry x="400" y="1160" width="120" height="60" as="geometry" />
        </mxCell>
        <mxCell id="65gUk-IXfFiE8Me1EHnl-74" value="no" style="text;html=1;strokeColor=none;fillColor=none;align=center;verticalAlign=middle;whiteSpace=wrap;rounded=0;" vertex="1" parent="1">
          <mxGeometry x="123" y="340" width="60" height="30" as="geometry" />
        </mxCell>
        <mxCell id="65gUk-IXfFiE8Me1EHnl-77" value="" style="edgeStyle=orthogonalEdgeStyle;rounded=0;orthogonalLoop=1;jettySize=auto;html=1;" edge="1" parent="1" source="65gUk-IXfFiE8Me1EHnl-75" target="65gUk-IXfFiE8Me1EHnl-76">
          <mxGeometry relative="1" as="geometry" />
        </mxCell>
        <mxCell id="65gUk-IXfFiE8Me1EHnl-75" value="Request&amp;nbsp; applied booking data" style="rounded=0;whiteSpace=wrap;html=1;" vertex="1" parent="1">
          <mxGeometry x="-260" y="1310" width="120" height="60" as="geometry" />
        </mxCell>
        <mxCell id="65gUk-IXfFiE8Me1EHnl-79" value="" style="edgeStyle=orthogonalEdgeStyle;rounded=0;orthogonalLoop=1;jettySize=auto;html=1;" edge="1" parent="1" source="65gUk-IXfFiE8Me1EHnl-76" target="65gUk-IXfFiE8Me1EHnl-78">
          <mxGeometry relative="1" as="geometry">
            <Array as="points">
              <mxPoint x="420" y="1470" />
              <mxPoint x="-80" y="1470" />
            </Array>
          </mxGeometry>
        </mxCell>
        <mxCell id="65gUk-IXfFiE8Me1EHnl-76" value="Display booking request made by customer" style="whiteSpace=wrap;html=1;rounded=0;" vertex="1" parent="1">
          <mxGeometry x="360" y="1290" width="120" height="60" as="geometry" />
        </mxCell>
        <mxCell id="65gUk-IXfFiE8Me1EHnl-81" value="" style="edgeStyle=orthogonalEdgeStyle;rounded=0;orthogonalLoop=1;jettySize=auto;html=1;" edge="1" parent="1" source="65gUk-IXfFiE8Me1EHnl-78">
          <mxGeometry relative="1" as="geometry">
            <mxPoint x="400" y="1550" as="targetPoint" />
          </mxGeometry>
        </mxCell>
        <mxCell id="65gUk-IXfFiE8Me1EHnl-78" value="Cancel booking" style="whiteSpace=wrap;html=1;rounded=0;" vertex="1" parent="1">
          <mxGeometry x="-140" y="1520" width="120" height="60" as="geometry" />
        </mxCell>
        <mxCell id="65gUk-IXfFiE8Me1EHnl-82" value="" style="endArrow=none;html=1;rounded=0;" edge="1" parent="1">
          <mxGeometry width="50" height="50" relative="1" as="geometry">
            <mxPoint x="400" y="1610" as="sourcePoint" />
            <mxPoint x="400" y="1500" as="targetPoint" />
          </mxGeometry>
        </mxCell>
        <mxCell id="65gUk-IXfFiE8Me1EHnl-83" value="" style="endArrow=classic;html=1;rounded=0;entryX=1;entryY=1;entryDx=0;entryDy=0;" edge="1" parent="1" target="65gUk-IXfFiE8Me1EHnl-72">
          <mxGeometry width="50" height="50" relative="1" as="geometry">
            <mxPoint x="400" y="1510" as="sourcePoint" />
            <mxPoint x="590" y="1510" as="targetPoint" />
            <Array as="points">
              <mxPoint x="520" y="1510" />
            </Array>
          </mxGeometry>
        </mxCell>
        <mxCell id="65gUk-IXfFiE8Me1EHnl-84" value="" style="endArrow=classic;html=1;rounded=0;entryX=0.5;entryY=1;entryDx=0;entryDy=0;" edge="1" parent="1" target="65gUk-IXfFiE8Me1EHnl-86">
          <mxGeometry width="50" height="50" relative="1" as="geometry">
            <mxPoint x="390" y="1610" as="sourcePoint" />
            <mxPoint x="540" y="1610.3571428571427" as="targetPoint" />
            <Array as="points">
              <mxPoint x="610" y="1610" />
            </Array>
          </mxGeometry>
        </mxCell>
        <mxCell id="65gUk-IXfFiE8Me1EHnl-89" style="edgeStyle=orthogonalEdgeStyle;rounded=0;orthogonalLoop=1;jettySize=auto;html=1;exitX=0.5;exitY=0;exitDx=0;exitDy=0;" edge="1" parent="1" source="65gUk-IXfFiE8Me1EHnl-86" target="65gUk-IXfFiE8Me1EHnl-90">
          <mxGeometry relative="1" as="geometry">
            <mxPoint x="610" y="1280" as="targetPoint" />
          </mxGeometry>
        </mxCell>
        <mxCell id="65gUk-IXfFiE8Me1EHnl-86" value="Send notification to admin and DVC" style="rounded=0;whiteSpace=wrap;html=1;" vertex="1" parent="1">
          <mxGeometry x="550" y="1520" width="120" height="60" as="geometry" />
        </mxCell>
        <mxCell id="65gUk-IXfFiE8Me1EHnl-90" value="end" style="ellipse;whiteSpace=wrap;html=1;aspect=fixed;" vertex="1" parent="1">
          <mxGeometry x="570" y="1240" width="50" height="50" as="geometry" />
        </mxCell>
      </root>
    </mxGraphModel>
  </diagram>
</mxfile>
